<svg xmlns="http://www.w3.org/2000/svg"
  xmlns:xlink="http://www.w3.org/1999/xlink" viewBox="0 0 250 248">
  <defs>
    <path id="a" d="M88.921.189C43.508 14.144 8.748 53.563.259 102.359v46.46c7.914 45.534 38.722 82.91 79.707 99.026h90.625c39.141-15.39 68.99-50.149 78.502-92.893V96.226C238.861 50.274 205.141 13.553 161.627.19"/>
    <path id="c" d="M73.145.627C35.999 12.043 7.567 44.291.623 84.209v38.008c6.474 37.25 31.673 67.827 65.197 81.011h74.127c32.016-12.59 56.431-41.025 64.211-75.994V79.193C195.788 41.6 168.208 11.56 132.615.627h-59.47z"/>
    <path id="e" d="M73.145.627C35.999 12.043 7.567 44.291.623 84.209v38.008c6.474 37.25 31.673 67.827 65.197 81.011h74.127c32.016-12.59 56.431-41.025 64.211-75.994V79.193C195.788 41.6 168.208 11.56 132.615.627"/>
    <path id="g" d="M73.145.627C35.999 12.043 7.567 44.291.623 84.209v38.008c6.474 37.25 31.673 67.827 65.197 81.011h74.127c32.016-12.59 56.431-41.025 64.211-75.994V79.193C195.788 41.6 168.208 11.56 132.615.627"/>
    <path id="i" d="M73.145.627C35.999 12.043 7.567 44.291.623 84.209v38.008c6.474 37.25 31.673 67.827 65.197 81.011h74.127c32.016-12.59 56.431-41.025 64.211-75.994V79.193C195.788 41.6 168.208 11.56 132.615.627"/>
    <path id="k" d="M73.145.627C35.999 12.043 7.567 44.291.623 84.209v38.008c6.474 37.25 31.673 67.827 65.197 81.011h74.127c32.016-12.59 56.431-41.025 64.211-75.994V79.193C195.788 41.6 168.208 11.56 132.615.627h-59.47z"/>
    <path id="m" d="M73.145.627C35.999 12.043 7.567 44.291.623 84.209v38.008c6.474 37.25 31.673 67.827 65.197 81.011h74.127c32.016-12.59 56.431-41.025 64.211-75.994V79.193C195.788 41.6 168.208 11.56 132.615.627h-59.47z"/>
    <path id="o" d="M73.145.627C35.999 12.043 7.567 44.291.623 84.209v38.008c6.474 37.25 31.673 67.827 65.197 81.011h74.127c32.016-12.59 56.431-41.025 64.211-75.994V79.193C195.788 41.6 168.208 11.56 132.615.627h-59.47z"/>
    <path id="q" d="M73.145.627C35.999 12.043 7.567 44.291.623 84.209v38.008c6.474 37.25 31.673 67.827 65.197 81.011h74.127c32.016-12.59 56.431-41.025 64.211-75.994V79.193C195.788 41.6 168.208 11.56 132.615.627h-59.47z"/>
    <path id="s" d="M73.145.627C35.999 12.043 7.567 44.291.623 84.209v38.008c6.474 37.25 31.673 67.827 65.197 81.011h74.127c32.016-12.59 56.431-41.025 64.211-75.994V79.193C195.788 41.6 168.208 11.56 132.615.627h-59.47z"/>
    <path id="u" d="M73.145.627C35.999 12.043 7.567 44.291.623 84.209v38.008c6.474 37.25 31.673 67.827 65.197 81.011h74.127c32.016-12.59 56.431-41.025 64.211-75.994V79.193C195.788 41.6 168.208 11.56 132.615.627"/>
  </defs>
  <g fill="none" fill-rule="evenodd">
    <mask id="b" fill="#fff">
      <use xlink:href="#a"/>
    </mask>
    <path fill="#E9AEAF" d="M249.102 124.017c0 68.392-55.7 123.828-124.417 123.828S.26 192.41.26 124.017 55.969.19 124.685.19c68.717 0 124.417 55.436 124.417 123.828" mask="url(#b)"/>
    <g transform="translate(22.86 22.042)">
      <mask id="d" fill="#fff">
        <use xlink:href="#c"/>
      </mask>
      <path stroke="#FEFEFE" stroke-width="4" d="M133.273 78.204c0 29.097-22.04 52.672-30.754 52.672-.097 0-.194 0-.299-.008-8.885-.52-29.828-23.894-29.828-52.664 0-12.776 9.124-24.489 14.492-33.608 6.862-11.647 14.052-32.345 15.635-32.19 1.665.164 8.639 20.268 15.612 31.558 5.697 9.201 15.142 21.167 15.142 34.24z" mask="url(#d)"/>
    </g>
    <g transform="translate(22.86 22.042)">
      <mask id="f" fill="#fff">
        <use xlink:href="#e"/>
      </mask>
      <path stroke="#FEFEFE" stroke-width="4" d="M98.5 131.125c-.066.015.27.022.21-.007-2.942-1.39-12.693-9.194-20.824-24.712-3.913-9.343-6.712-17.146-6.735-31.178-.007-4.207 1.396-8.08 2.15-13.794 1.449-10.807-12.013-21.502-42.088-9.737 0 0 11.372 8.726 14.276 14.917 2.501 5.329 3.927 9.595 7.138 23.805 10.027 31.736 41.401 43.94 46.658 40.543" mask="url(#f)"/>
    </g>
    <g transform="translate(22.86 22.042)">
      <mask id="h" fill="#fff">
        <use xlink:href="#g"/>
      </mask>
      <path stroke="#FEFEFE" stroke-width="4" d="M104.943 131.125c.067.015-.27.022-.21-.007 2.942-1.39 12.694-9.201 20.824-24.712 3.913-9.343 6.713-17.146 6.735-31.178.008-4.207-1.396-8.08-2.15-13.794-1.449-10.807 12.013-21.502 42.088-9.737 0 0-11.371 8.726-14.276 14.917-2.5 5.329-3.927 9.595-7.138 23.805-10.027 31.736-41.401 43.94-46.657 40.543" mask="url(#h)"/>
    </g>
    <g transform="translate(22.86 22.042)">
      <mask id="j" fill="#fff">
        <use xlink:href="#i"/>
      </mask>
      <path stroke="#FEFEFE" stroke-width="4" d="M103.426 133.724c-2.98.09-12.245-1.813-25.76-10.992-8.735-6.711-14.185-10.546-19.957-22.222-1.732-3.508-2.897-5.203-4.577-10.309l-1.867-2.943c-5.898-10.093-21.376-5.76-32.994 11.639 0 0 6.795.914 12.103 4.467 6.459 4.325 12.372 11.326 15.075 13.786 8.146 7.997 17.27 18.58 25.7 21.531 16.493 5.768 30.761-1.976 32.897-5.455" mask="url(#j)"/>
    </g>
    <g transform="translate(22.86 22.042)">
      <mask id="l" fill="#fff">
        <use xlink:href="#k"/>
      </mask>
      <path stroke="#FEFEFE" stroke-width="4" d="M87.687 159.988c0-13.2 10.035-23.902 14-23.902.044 0 .082 0 .134.008 4.047.23 13.574 10.843 13.574 23.894 0 5.797-4.151 11.111-6.593 15.25-3.12 5.285-6.264 13.468-7.115 13.32-.889-.164-3.935-7.909-7.108-13.03-2.591-4.176-6.892-9.602-6.892-15.54z" mask="url(#l)"/>
    </g>
    <g transform="translate(22.86 22.042)">
      <mask id="n" fill="#fff">
        <use xlink:href="#m"/>
      </mask>
      <path stroke="#FEFEFE" stroke-width="4" d="M63.315 144.6c6.354-3.545 12.275-2.453 17.509-2.505 5.824-.06 7.01.49 8.138 2.23.023.037.053.074.067.119 1.987 3.515-2.142 17.443-13.566 24.771-5.085 3.255-11.984 2.757-16.926 3.032-6.317.357-15.135 2.126-15.516 1.517-.575-.922 4.801-7.722 7.564-13.252 2.247-4.511 7.34-12.902 12.73-15.912z" mask="url(#n)"/>
    </g>
    <g transform="translate(22.86 22.042)">
      <mask id="p" fill="#fff">
        <use xlink:href="#o"/>
      </mask>
      <path stroke="#FEFEFE" stroke-width="4" d="M48.553 129.03c6.503-.326 14.432 6.065 18.763 8.66 4.83 2.898 5.72 4.072 5.271 4.191 0 0-.313-.832-.313-.795-.045 2.08-2.24.936-8.139 3.381-4.076 1.695-9.086 7.492-14.373 8.533-5.92 1.166-11.737-3.01-16.15-4.913-5.637-2.423-14.104-4.965-14.163-5.463-.097-.87 8.056-3.805 13.245-6.823 4.226-2.46 9.684-6.466 15.859-6.77z" mask="url(#p)"/>
    </g>
    <g transform="translate(22.86 22.042)">
      <mask id="r" fill="#fff">
        <use xlink:href="#q"/>
      </mask>
      <path stroke="#FEFEFE" stroke-width="4" d="M142.297 145.41c-5.48-3.509-14.485-3.367-19.726-3.42-5.824-.059-7.653-.022-8.78 1.725-.023.037-.053.074-.068.119-.963 3.775 2.546 15.615 13.574 24.771 4.637 3.85 11.976 2.757 16.926 3.032 6.317.357 15.224 2.32 15.516 1.517.216-.625-4.801-7.73-7.564-13.26-2.255-4.51-4.681-11.155-9.878-14.485z" mask="url(#r)"/>
    </g>
    <g transform="translate(22.86 22.042)">
      <mask id="t" fill="#fff">
        <use xlink:href="#s"/>
      </mask>
      <path stroke="#FEFEFE" stroke-width="4" d="M157.416 129.033c-6.511-.327-14.56 4.854-19.667 8.622-4.525 3.344-4.383 1.999-4.01 3.738.008.037-.044-.35-.044-.305.045 1.301 2.613 1.613 8.138 4.802 3.427 1.984 7.803 5.819 14.373 7.112 5.921 1.167 11.737-3.01 16.15-4.912 5.63-2.43 14.268-4.579 14.164-5.463-.075-.61-8.056-3.813-13.246-6.83-4.226-2.453-9.684-6.459-15.858-6.764z" mask="url(#t)"/>
    </g>
    <g transform="translate(22.86 22.042)">
      <mask id="v" fill="#fff">
        <use xlink:href="#u"/>
      </mask>
      <path stroke="#FEFEFE" stroke-width="4" d="M101.256 133.724c2.98.09 12.245-1.813 25.76-10.992 8.735-6.711 14.186-10.546 19.957-22.222 1.732-3.508 2.897-5.203 4.577-10.309l1.867-2.943c5.898-10.093 21.376-5.76 32.994 11.639 0 0-6.795.914-12.103 4.467-6.459 4.325-12.372 11.326-15.082 13.786-8.139 7.997-17.263 18.58-25.7 21.531-16.486 5.768-30.754-1.976-32.897-5.455" mask="url(#v)"/>
    </g>
  </g>
</svg>
