<svg xmlns="http://www.w3.org/2000/svg" viewBox="0 0 268 111">
  <g fill="currentColor" fill-rule="evenodd">
    <path fill-rule="nonzero" d="M133.223 38.784c1.429 0 2.805-.277 4.128-.832v-.32h-.48c-1.75 0-3.19-.587-4.32-1.76-1.43-1.493-2.507-4.16-3.232-8l-3.616-18.72h-.288l-9.504 14.176-5.728-9.312c-1.728-2.859-3.808-4.917-6.24-6.176-1.216-.619-2.555-.928-4.016-.928-1.462 0-2.95.405-4.464 1.216l.096.32h.256c1.514 0 3.029.832 4.544 2.496 1.322 1.472 2.528 3.157 3.616 5.056l-2.208 13.728c-.107.597-.38 1.072-.816 1.424a2.354 2.354 0 01-1.52.528h-.512V32h7.008v-.288h-.48c-.342 0-.635-.144-.88-.432-.246-.288-.368-.603-.368-.944v-.128l1.6-10.752 7.776 13.312h.288c-.022-.512.106-1.13.384-1.856.277-.725.597-1.344.96-1.856l5.472-8.128 1.472 6.752c.704 3.35 1.93 5.941 3.68 7.776 2.09 2.219 4.554 3.328 7.392 3.328zM145.927 32v-.32h-.416a1.995 1.995 0 01-1.44-.592 1.916 1.916 0 01-.608-1.424V12.352c.02-.619.106-1.13.256-1.536.32-.832 1.077-1.344 2.272-1.536l-.064-.32c-1.344.256-3.34.448-5.984.576-.918.021-2.011.053-3.28.096-1.27.043-2.022.075-2.256.096-1.643.064-2.848.421-3.616 1.072-.768.65-1.152 1.467-1.152 2.448 0 1.045.448 1.835 1.344 2.368.469.277.933.416 1.392.416.458 0 .922-.128 1.392-.384v-.192h-.384c-.62 0-1.131-.181-1.536-.544-.406-.363-.608-.843-.608-1.44v-.192c.128-1.259 1.088-1.92 2.88-1.984l2.784-.096v18.464a2.06 2.06 0 01-.624 1.424c-.395.395-.87.592-1.424.592h-.416V32h11.488zm10.976 3.328c1.664 0 3.2-.277 4.608-.832 1.408-.555 2.56-1.27 3.456-2.144.896-.875 1.546-1.83 1.952-2.864.405-1.035.608-2.01.608-2.928 0-1.365-.427-2.677-1.28-3.936-.747-1.11-1.792-2.037-3.136-2.784l-5.984-3.424a4.927 4.927 0 01-.544-.288c-.256-.15-.544-.315-.864-.496a4.14 4.14 0 01-.96-.784c-.363-.384-.512-.853-.448-1.408.064-.81.48-1.461 1.248-1.952.768-.49 1.866-.736 3.296-.736 1.429 0 2.602.363 3.52 1.088.917.725 1.376 1.675 1.376 2.848h.32l.672-5.216h-2.496c-2.176-.213-3.968-.32-5.376-.32-2.198 0-3.936.501-5.216 1.504-1.536 1.195-2.304 2.89-2.304 5.088 0 2.453 1.322 4.459 3.968 6.016l5.216 3.072c1.045.576 1.834 1.253 2.368 2.032.533.779.8 1.541.8 2.288 0 .747-.203 1.461-.608 2.144-.406.683-1.046 1.227-1.92 1.632-.875.405-1.947.608-3.216.608-1.27 0-2.512-.31-3.728-.928a7.443 7.443 0 01-2.912-2.592c-.726-1.11-1.088-2.39-1.088-3.84 0-1.173.352-2.39 1.056-3.648l-.288-.224c-1.131 1.621-1.696 3.36-1.696 5.216 0 .576.096 1.195.288 1.856.746 2.453 2.357 4.17 4.832 5.152 1.322.533 2.816.8 4.48.8zm26.688-2.88c1.749 0 3.349-.299 4.8-.896 3.05-1.259 4.98-3.499 5.792-6.72.256-1.024.384-2.016.384-2.976s-.064-1.867-.192-2.72h-.256v.768c0 3.35-.886 6.01-2.656 7.984-1.771 1.973-4.182 2.96-7.232 2.96-2.774-.085-4.896-1.05-6.368-2.896-1.472-1.845-2.208-4.304-2.208-7.376s.704-5.477 2.112-7.216c1.408-1.739 3.402-2.608 5.984-2.608 3.882 0 6.378 1.995 7.488 5.984h.288l.32-6.112c-2.304-.981-5.056-1.472-8.256-1.472-4.608 0-8.256 1.061-10.944 3.184-2.688 2.123-4.032 4.96-4.032 8.512 0 3.552 1.296 6.373 3.888 8.464 2.592 2.09 6.288 3.136 11.088 3.136zm13.728 5.984a4.3 4.3 0 00.768-.064c2.325-.256 4.02-1.248 5.088-2.976 1.024-1.643 1.536-3.52 1.536-5.632V21.6h8.576v8.064a2.06 2.06 0 01-.624 1.424c-.395.395-.88.592-1.456.592h-.384V32h11.456v-.32h-.384c-.384 0-.736-.096-1.056-.288-.662-.405-.992-.981-.992-1.728V12.48c0-.597.01-1.253.032-1.968.02-.715.117-1.35.288-1.904.34-1.11.736-1.877 1.184-2.304a6.308 6.308 0 012.624-1.568v-.32a10.54 10.54 0 00-2.496-.32c-2.027 0-3.776.65-5.248 1.952a8.36 8.36 0 00-2.176 2.912 8.443 8.443 0 00-.768 3.52V20h-8.576v-8.128c.02-.363.128-.693.32-.992.384-.64.96-.96 1.728-.96h.416V9.6h-11.488v.32h.416c.554 0 1.029.192 1.424.576.394.384.602.853.624 1.408V29.76c0 1.067-.043 2.016-.128 2.848-.064.64-.288 1.355-.672 2.144-.555 1.173-1.686 2.09-3.392 2.752v.32c1.237.405 2.357.608 3.36.608zm52.224.48c1.706 0 3.38-.48 5.024-1.44l-.064-.32a6.23 6.23 0 01-1.712.256c-.544 0-1.04-.075-1.488-.224-1.067-.32-1.952-.8-2.656-1.44a13.868 13.868 0 01-1.12-1.12 12.878 12.878 0 01-1.04-1.36 49.629 49.629 0 01-1.2-1.888c-.448-.736-1.142-2.181-2.08-4.336l-5.12-11.744c-.747-1.664-1.59-3.083-2.528-4.256-1.856-2.261-3.936-3.392-6.24-3.392-1.558 0-3.19.501-4.896 1.504l.064.32c.512-.192.97-.288 1.376-.288.405 0 .757.053 1.056.16a4.487 4.487 0 011.92 1.312c.277.32.624.784 1.04 1.392.416.608.944 1.797 1.584 3.568l-6.528 14.336c-.32.576-.72 1.008-1.2 1.296-.48.288-.966.432-1.456.432h-.288V32h7.136v-.32h-.288a1.41 1.41 0 01-.784-.24c-.246-.16-.406-.341-.48-.544a1.63 1.63 0 01-.112-.56c0-.17.053-.395.16-.672l1.28-2.976h6.848l.864 2.112c.938 2.283 2.138 4.219 3.6 5.808 1.46 1.59 2.954 2.704 4.48 3.344 1.525.64 3.14.96 4.848.96zM235.11 25.088h-5.504l2.88-6.592c.234.704.437 1.248.608 1.632l2.016 4.96zM113.415 73.784c1.706 0 3.52-.416 5.44-1.248l-.064-.32a9.705 9.705 0 01-2.08.224 7.25 7.25 0 01-2.112-.32c-2.432-.768-4.203-2.496-5.312-5.184a9.762 9.762 0 01-.736-3.68v-5.184c-.022-.47.106-.832.384-1.088.277-.256.672-.384 1.184-.384h.512v-.32H99.879v.32h.48c.533 0 .944.128 1.232.384.288.256.42.619.4 1.088v4.352c0 1.024-.39 1.85-1.168 2.48-.78.63-1.846.944-3.2.944-1.355 0-2.587-.41-3.696-1.232-1.11-.821-1.963-1.979-2.56-3.472-.598-1.493-.896-3.21-.896-5.152 0-3.072.693-5.547 2.08-7.424 1.386-1.877 3.146-2.816 5.28-2.816 2.133 0 3.952.496 5.456 1.488 1.504.992 2.512 2.49 3.024 4.496h.288l.32-6.144c-.64-.256-1.472-.49-2.496-.704a33.406 33.406 0 00-7.04-.736c-4.182 0-7.552 1.061-10.112 3.184-2.56 2.123-3.84 4.933-3.84 8.432 0 3.499 1.253 6.32 3.76 8.464 2.506 2.144 5.776 3.216 9.808 3.216 2.048 0 4-.288 5.856-.864a11.59 11.59 0 003.488 4.704c1.557 1.259 3.402 2.059 5.536 2.4.512.064 1.024.096 1.536.096zm12.544-6.336c4.373 0 7.888-1.072 10.544-3.216 2.656-2.144 3.984-5.008 3.984-8.592 0-2.475-.62-4.587-1.856-6.336a13.672 13.672 0 00-2-2.24 9.67 9.67 0 00-2.416-1.616 20.717 20.717 0 00-2.64-1.008c-.907-.277-1.595-.421-2.064-.432-.47-.01-.912-.016-1.328-.016-.416 0-.966.053-1.648.16-1.131.213-2.08.65-2.848 1.312-1.28 1.067-1.92 2.453-1.92 4.16 0 1.237.33 2.41.992 3.52h.384a10.479 10.479 0 01-.352-2.592c0-1.43.437-2.624 1.312-3.584.746-.832 1.813-1.248 3.2-1.248 1.066 0 2.08.384 3.04 1.152.96.768 1.712 1.93 2.256 3.488.544 1.557.816 3.317.816 5.28 0 3.093-.683 5.568-2.048 7.424-1.366 1.856-3.184 2.784-5.456 2.784-2.272 0-4.091-1.024-5.456-3.072-1.366-2.048-2.048-4.768-2.048-8.16 0-2.09.26-4.037.784-5.84.522-1.803 1.22-3.163 2.096-4.08l-.192-.32c-2.902.49-5.254 1.776-7.056 3.856-1.803 2.08-2.704 4.57-2.704 7.472 0 3.52 1.344 6.357 4.032 8.512 2.688 2.155 6.218 3.232 10.592 3.232zm17.472 5.984a4.3 4.3 0 00.768-.064c2.325-.256 4.02-1.248 5.088-2.976 1.024-1.643 1.536-3.52 1.536-5.632V56.6h8.576v8.064a2.06 2.06 0 01-.624 1.424c-.395.395-.88.592-1.456.592h-.384V67h11.456v-.32h-.384c-.384 0-.736-.096-1.056-.288-.662-.405-.992-.981-.992-1.728V47.48c0-.597.01-1.253.032-1.968.02-.715.117-1.35.288-1.904.34-1.11.736-1.877 1.184-2.304a6.308 6.308 0 012.624-1.568v-.32a10.54 10.54 0 00-2.496-.32c-2.027 0-3.776.65-5.248 1.952a8.36 8.36 0 00-2.176 2.912 8.443 8.443 0 00-.768 3.52V55h-8.576v-8.128c.02-.363.128-.693.32-.992.384-.64.96-.96 1.728-.96h.416v-.32h-11.488v.32h.416c.554 0 1.029.192 1.424.576.394.384.602.853.624 1.408V64.76c0 1.067-.043 2.016-.128 2.848-.064.64-.288 1.355-.672 2.144-.555 1.173-1.686 2.09-3.392 2.752v.32c1.237.405 2.357.608 3.36.608zm52.16 2.08c2.112 0 3.712-.299 4.8-.896 1.749-.981 3.093-2.485 4.032-4.512l-.256-.224c-1.024.917-2.87 1.376-5.536 1.376-3.776 0-9.792-1.27-18.048-3.808-.811-.256-1.216-.885-1.216-1.888V46.936a2.01 2.01 0 01.64-1.44c.405-.384.917-.576 1.536-.576h.288v-.32h-11.488v.32h.416c.362 0 .693.085.992.256.682.384 1.034.97 1.056 1.76v17.728a2.29 2.29 0 01-.288 1.024c-.406.661-.992.992-1.76.992h-.416V67c1.237 0 2.453.133 3.648.4 1.194.267 2.133.544 2.816.832.682.288 1.338.592 1.968.912.629.32 1.626.837 2.992 1.552a114.92 114.92 0 004.288 2.128c1.194.555 2.186.965 2.976 1.232.789.267 1.765.565 2.928.896 1.162.33 2.005.507 2.528.528.522.021.89.032 1.104.032zm.48-8.512v-.32h-.416a1.995 1.995 0 01-1.44-.592 1.916 1.916 0 01-.608-1.424v-17.76c.02-.555.229-1.024.624-1.408.394-.384.869-.576 1.424-.576h.416v-.32h-11.488v.32h.416c.554 0 1.029.192 1.424.576.394.384.602.853.624 1.408v17.76a2.06 2.06 0 01-.624 1.424c-.395.395-.87.592-1.424.592h-.416V67h11.488zm16.8 7.456c1.962 0 4-.597 6.112-1.792l-.064-.352c-2.198-.17-4.134-.885-5.808-2.144-1.675-1.259-3.675-3.52-6-6.784l-7.328-10.304 5.472-6.624c.917-1.045 2.09-1.568 3.52-1.568h.128V44.6h-7.712v.288h.32c.448 0 .746.16.896.48a.99.99 0 01.096.448c0 .17-.075.363-.224.576l-7.648 10.432 7.04 9.76c1.045 1.45 2.058 2.688 3.04 3.712 2.666 2.773 5.386 4.16 8.16 4.16zM231.527 67l1.216-7.424h-.32c-.491 1.813-1.334 3.232-2.528 4.256-1.195 1.024-2.571 1.536-4.128 1.536h-5.856V56.76h4.48c1.002.021 1.824.357 2.464 1.008.64.65.96 1.477.96 2.48v.16h.32v-8.896h-.32v.128c0 1.024-.32 1.861-.96 2.512-.64.65-1.472.987-2.496 1.008h-4.448v-8.928h1.12c1.258.043 2.24.427 2.944 1.152.704.725 1.056 1.717 1.056 2.976v.256h.32v-6.592c-.192.085-.646.203-1.36.352-.715.15-1.531.224-2.448.224h-10.656v.32h.416c.448 0 .842.128 1.184.384.554.405.842.95.864 1.632v17.728a2.06 2.06 0 01-.624 1.424c-.395.395-.87.592-1.424.592h-.416V67h20.64zM79.975 102.512c4.288 0 7.466-.981 9.536-2.944 1.216-1.13 1.824-2.55 1.824-4.256 0-1.707-.608-3.061-1.824-4.064-1.216-1.003-2.55-1.504-4-1.504h-.32c.512-.192.97-.512 1.376-.96.917-.939 1.376-2.101 1.376-3.488 0-1.259-.46-2.336-1.376-3.232-1.707-1.643-4.374-2.464-8-2.464H68.71v.32h.416c.533 0 1.002.187 1.408.56.405.373.618.848.64 1.424v16.8c-2.624-1.963-3.936-4.928-3.936-8.896l-.32.032c-.064.64-.096 1.27-.096 1.888 0 7.19 4.384 10.784 13.152 10.784zm-2.24-1.728V81.232c1.173.085 2.005.47 2.496 1.152.49.683.768 1.717.832 3.104v.96c0 .597-.14 1.29-.416 2.08a2.23 2.23 0 01-.688.912c-.31.245-.688.368-1.136.368v.288c1.322 0 2.485.405 3.488 1.216 1.002.81 1.504 2.123 1.504 3.936 0 1.643-.534 2.97-1.6 3.984-1.067 1.013-2.56 1.53-4.48 1.552zm39.808 8.128c1.706 0 3.38-.48 5.024-1.44l-.064-.32a6.23 6.23 0 01-1.712.256c-.544 0-1.04-.075-1.488-.224-1.067-.32-1.952-.8-2.656-1.44a13.868 13.868 0 01-1.12-1.12 12.878 12.878 0 01-1.04-1.36 49.629 49.629 0 01-1.2-1.888c-.448-.736-1.142-2.181-2.08-4.336l-5.12-11.744c-.747-1.664-1.59-3.083-2.528-4.256-1.856-2.261-3.936-3.392-6.24-3.392-1.558 0-3.19.501-4.896 1.504l.064.32c.512-.192.97-.288 1.376-.288.405 0 .757.053 1.056.16a4.487 4.487 0 011.92 1.312c.277.32.624.784 1.04 1.392.416.608.944 1.797 1.584 3.568l-6.528 14.336c-.32.576-.72 1.008-1.2 1.296-.48.288-.966.432-1.456.432h-.288v.32h7.136v-.32h-.288a1.41 1.41 0 01-.784-.24c-.246-.16-.406-.341-.48-.544a1.63 1.63 0 01-.112-.56c0-.17.053-.395.16-.672l1.28-2.976h6.848l.864 2.112c.938 2.283 2.138 4.219 3.6 5.808 1.46 1.59 2.954 2.704 4.48 3.344 1.525.64 3.14.96 4.848.96zM103.11 95.088h-5.504l2.88-6.592c.234.704.437 1.248.608 1.632l2.016 4.96zm42.944 12.448a7.842 7.842 0 004.224-1.216l-.128-.32a6.274 6.274 0 01-1.792.256 7.808 7.808 0 01-1.76-.192c-.491-.085-1.035-.293-1.632-.624a56.597 56.597 0 01-1.408-.8c-.342-.203-.79-.555-1.344-1.056a92.69 92.69 0 01-1.104-1.008c-.182-.17-.523-.523-1.024-1.056l-.752-.8-.576-.608V81.84a1.94 1.94 0 01.608-1.36c.384-.373.842-.56 1.376-.56h.576v-.32h-11.712v.32h.608c.533 0 .992.187 1.376.56.384.373.586.837.608 1.392v11.456l-13.152-13.6a21.517 21.517 0 00-3.52-2.88c-.704-.448-1.531-.848-2.48-1.2-.95-.352-1.883-.528-2.8-.528-1.387 0-2.678.427-3.872 1.28l.16.288a5.119 5.119 0 011.792-.32c2.474 0 5.354 1.75 8.64 5.248v18.112c0 .555-.192 1.019-.576 1.392-.384.373-.843.56-1.376.56h-.608v.32h11.712v-.32h-.608c-.534 0-.992-.187-1.376-.56a1.863 1.863 0 01-.576-1.392V88.464l14.048 14.528c1.408 1.45 2.848 2.57 4.32 3.36 1.429.79 2.805 1.184 4.128 1.184zM156.199 102c3.989 0 7.114-.987 9.376-2.96 2.26-1.973 3.392-4.72 3.392-8.24 0-3.52-1.126-6.267-3.376-8.24-2.251-1.973-5.382-2.96-9.392-2.96h-7.424c-2.688 0-4.923.576-6.704 1.728-1.782 1.152-2.886 2.88-3.312 5.184l.32.128c.597-1.365 1.386-2.485 2.368-3.36 1.152-1.024 2.848-1.653 5.088-1.888v18.272a2.06 2.06 0 01-.624 1.424c-.395.395-.87.592-1.424.592h-.416v.32h12.128zm-.64-1.6h-2.464V81.264l2.464-.064c1.984 0 3.54.848 4.672 2.544 1.13 1.696 1.696 4.048 1.696 7.056s-.566 5.36-1.696 7.056c-1.131 1.696-2.688 2.544-4.672 2.544z"/>
    <path d="M78.778 14.342c-1.393 2.722-.414 4.545-2.554 7.049L44.298 58.735c-5.85 1.345-8.147-5.294-5.496-9.071 1.225-2.005 3.5-4.09 2.2-5.276-4.152-2.26-9.03 2.882-9.466 7.57-1.042 5.742-3.852 11.565-9.846 13.303-4.943 1.537-10.285 3.386-13.499 7.244a12.213 12.213 0 00-2.144 3.75c-2.887 7.653 3.569 16.31 10.27 21.338 6.552 4.852 15.162 9.412 22.744 7.318 5.885-2.609 6.545-9.84 8.078-15.467.458-6.245 6.324-6.95 9.752-10.125 3.427-3.175 5.154-10.144 2.076-7.812-3.146 2.39-11.216 3.818-11.517-2.596-.427-2.91 2.325-4.381 3.61-6.509l31.582-39.52c2.31.054 3.522-.95 4.244-2.416l.16-.364c.307-.728.515-1.547.69-2.396.288-1.528.476-2.497.566-2.907l.115-.39-.062.171c.126-.546.66-2.333.801-2.705l.15-.363c.636-1.53 1.692-3.307 2.308-4.978l.126-.382c.693-2.11.568-4.012-2.165-4.985-3.018 4.83-6.813 9.108-10.797 13.175z"/>
  </g>
</svg>
